<svg xmlns="http://www.w3.org/2000/svg" viewBox="0 0 415 410">
  <rect width="415" height="410" rx="72" fill="#0A0A0A"/>
  <path d="M0 0 C136.95 0 273.9 0 415 0 C415 40.26 415 80.52 415 122 C409.06 122 403.12 122 397 122 C396.67 121.67 396.34 121.34 396 121 C396 87.34 396 53.68 396 19 C271.26 19 146.52 19 18 19 C18 142.09 18 265.18 18 392 C142.74 392 267.48 392 396 392 C396 360.98 396 329.96 396 298 C402.27 298 408.54 298 415 298 C415 334.96 415 371.92 415 410 C278.05 410 141.1 410 0 410 C0 274.7 0 139.4 0 0 Z" fill="#F9F9F9"/>
</svg>
