<?xml version="1.0" encoding="UTF-8"?>
<svg version="1.1" xmlns="http://www.w3.org/2000/svg" width="1536" height="1024">
<path d="M0 0 C506.88 0 1013.76 0 1536 0 C1536 337.92 1536 675.84 1536 1024 C1029.12 1024 522.24 1024 0 1024 C0 686.08 0 348.16 0 0 Z " fill="#000000" transform="translate(0,0)"/>
<path d="M0 0 C136.95 0 273.9 0 415 0 C415 40.26 415 80.52 415 122 C409.06 122 403.12 122 397 122 C396.67 121.67 396.34 121.34 396 121 C396 87.34 396 53.68 396 19 C271.26 19 146.52 19 18 19 C18 142.09 18 265.18 18 392 C142.74 392 267.48 392 396 392 C396 360.98 396 329.96 396 298 C402.27 298 408.54 298 415 298 C415 334.96 415 371.92 415 410 C278.05 410 141.1 410 0 410 C0 274.7 0 139.4 0 0 Z " fill="#F9F9F9" transform="translate(429,313)"/>
<path d="M0 0 C5.94 0 11.88 0 18 0 C21.9375 4.5625 21.9375 4.5625 23.390625 7.62109375 C25.25101045 11.52700009 27.57589615 14.69854315 30.1875 18.125 C31.1337789 19.39675272 32.07773904 20.67023362 33.01953125 21.9453125 C33.50373535 22.60047852 33.98793945 23.25564453 34.48681641 23.93066406 C38.57535932 29.52190152 42.53017751 35.21071701 46.50537109 40.8828125 C48.65728638 43.93106624 50.83122666 46.96371732 53 50 C53.33 33.5 53.66 17 54 0 C59.61 0 65.22 0 71 0 C71 26.4 71 52.8 71 80 C53 80 53 80 49.07421875 76.94921875 C47.81201172 74.92114258 47.81201172 74.92114258 46.6875 72.6875 C45.74725491 71.12169799 44.80580289 69.55662022 43.86328125 67.9921875 C43.40002441 67.17202148 42.93676758 66.35185547 42.45947266 65.50683594 C39.99997036 61.28231778 37.16923942 57.31985619 34.375 53.3125 C33.29450024 51.72729312 32.21505657 50.14136583 31.13671875 48.5546875 C27.81397815 43.69940081 24.39008222 38.9187603 20.89404297 34.18676758 C18 30.21489702 18 30.21489702 18 28 C17.34 28 16.68 28 16 28 C16 45.16 16 62.32 16 80 C10.72 80 5.44 80 0 80 C0 53.6 0 27.2 0 0 Z " fill="#F7F7F7" transform="translate(924,483)"/>
<path d="M0 0 C3.64023392 2.7243041 7.01067016 5.56530725 10 9 C10 9.66 10 10.32 10 11 C8.21895282 12.60178593 6.37462722 14.13381926 4.5 15.625 C2.96859375 16.85089844 2.96859375 16.85089844 1.40625 18.1015625 C0.6121875 18.72804688 -0.181875 19.35453125 -1 20 C-1.47308594 19.60167969 -1.94617187 19.20335937 -2.43359375 18.79296875 C-9.1058337 13.447373 -15.96383004 10.22837748 -24.671875 10.59375 C-31.19184514 11.73146291 -36.44442861 14.78992289 -40.5 20 C-45.58397498 27.33038252 -45.63171293 34.28433567 -45 43 C-43.73165271 49.29219165 -40.47654862 54.39663103 -35.3203125 58.2578125 C-28.35532167 62.3905664 -20.20511743 61.86940063 -12.5 60.1875 C-9.23386351 59.07934655 -7.45249037 58.34768309 -5 56 C-4.3049261 53.50592748 -4.3049261 53.50592748 -4.25 50.8125 C-4.1675 49.224375 -4.085 47.63625 -4 46 C-10.27 46 -16.54 46 -23 46 C-23 41.38 -23 36.76 -23 32 C-11.12 32 0.76 32 13 32 C13.0825 36.681875 13.165 41.36375 13.25 46.1875 C13.28641602 47.65598389 13.32283203 49.12446777 13.36035156 50.63745117 C13.3703418 51.80252197 13.38033203 52.96759277 13.390625 54.16796875 C13.4220459 55.95110474 13.4220459 55.95110474 13.45410156 57.77026367 C12.78174068 62.55234008 10.36428073 64.84873855 6.7734375 67.87890625 C-6.47119619 77.17603511 -18.2035957 78.6454802 -34.12890625 76.59765625 C-43.04801132 74.40725003 -51.65500305 67.90330937 -56.71875 60.29296875 C-63.25189616 48.6010273 -65.06597587 36.78741643 -62.30078125 23.6875 C-58.92187059 13.42245495 -51.73443361 4.6604295 -42.21875 -0.51171875 C-28.64839032 -6.87738478 -13.27422634 -7.54571406 0 0 Z " fill="#F7F6F7" transform="translate(1135,487)"/>
<path d="M0 0 C5.61 0 11.22 0 17 0 C17 10.56 17 21.12 17 32 C28.22 32 39.44 32 51 32 C51 21.77 51 11.54 51 1 C56.28 1 61.56 1 67 1 C67 27.07 67 53.14 67 80 C61.72 80 56.44 80 51 80 C51 68.78 51 57.56 51 46 C39.78 46 28.56 46 17 46 C17 57.22 17 68.44 17 80 C11.39 80 5.78 80 0 80 C0 53.6 0 27.2 0 0 Z " fill="#FAF9FA" transform="translate(680,483)"/>
<path d="M0 0 C20.13 0 40.26 0 61 0 C61 4.95 61 9.9 61 15 C53.41 15 45.82 15 38 15 C38 36.45 38 57.9 38 80 C32.72 80 27.44 80 22 80 C22 58.55 22 37.1 22 15 C14.74 15 7.48 15 0 15 C0 10.05 0 5.1 0 0 Z " fill="#F8F8F8" transform="translate(551,483)"/>
<path d="M0 0 C5.61 0 11.22 0 17 0 C17 26.4 17 52.8 17 80 C11.39 80 5.78 80 0 80 C0 53.6 0 27.2 0 0 Z " fill="#FAFAFA" transform="translate(826,483)"/>
<path d="M0 0 C2.97 0 5.94 0 9 0 C9 0.99 9 1.98 9 3 C6.69 3 4.38 3 2 3 C2 2.34 2 1.68 2 1 C1.34 0.67 0.68 0.34 0 0 Z " fill="#313132" transform="translate(1108,497)"/>
</svg>
