<?xml version="1.0" standalone="no"?>
<!DOCTYPE svg PUBLIC "-//W3C//DTD SVG 20010904//EN"
 "http://www.w3.org/TR/2001/REC-SVG-20010904/DTD/svg10.dtd">
<svg version="1.0" xmlns="http://www.w3.org/2000/svg"
 width="1024.000000pt" height="1024.000000pt" viewBox="0 0 1024.000000 1024.000000"
 preserveAspectRatio="xMidYMid meet">
<metadata>
Created by potrace 1.16, written by Peter Selinger 2001-2019
</metadata>
<g transform="translate(0.000000,1024.000000) scale(0.100000,-0.100000)"
fill="#000000" stroke="none">
<path d="M3843 7619 c-88 -44 -116 -157 -61 -249 36 -61 1888 -1907 1953
-1948 28 -17 79 -41 115 -54 l65 -23 678 -3 c372 -1 677 1 677 5 0 5 -501 508
-1112 1119 -1052 1050 -1117 1112 -1178 1140 l-65 29 -515 3 c-507 2 -516 2
-557 -19z"/>
<path d="M2864 6481 c-52 -24 -94 -78 -101 -131 -12 -85 -2 -96 419 -516 230
-229 412 -402 439 -418 25 -14 72 -36 105 -48 59 -23 63 -23 729 -26 l670 -3
-141 143 c-78 79 -321 324 -539 546 -356 359 -405 406 -464 435 l-66 32 -505
3 c-477 2 -507 1 -546 -17z"/>
<path d="M3755 4881 c-133 -38 -136 -40 -567 -470 -347 -346 -408 -412 -419
-448 -22 -78 13 -159 86 -197 39 -20 55 -21 510 -23 303 -2 490 1 525 8 102
20 159 60 313 220 78 81 317 323 531 538 l390 391 -655 -1 c-587 0 -660 -2
-714 -18z"/>
<path d="M5895 4884 c-143 -34 -116 -10 -1150 -1041 -525 -524 -961 -966 -970
-983 -9 -17 -18 -52 -21 -78 -7 -63 26 -127 81 -156 39 -20 53 -21 560 -21
l520 0 70 33 c67 32 119 82 1185 1147 l1115 1115 -665 -1 c-541 -1 -676 -3
-725 -15z"/>
</g>
</svg>
